<?xml version="1.0" standalone="no"?>
<!DOCTYPE svg PUBLIC "-//W3C//DTD SVG 20010904//EN"
 "http://www.w3.org/TR/2001/REC-SVG-20010904/DTD/svg10.dtd">
<svg version="1.0" xmlns="http://www.w3.org/2000/svg"
 width="700.000000pt" height="700.000000pt" viewBox="0 0 700.000000 700.000000"
 preserveAspectRatio="xMidYMid meet">
<metadata>
Created by potrace 1.14, written by Peter Selinger 2001-2017
</metadata>
<g transform="translate(0.000000,700.000000) scale(0.100000,-0.100000)"
fill="#000000" stroke="none">
<path d="M4088 6415 c0 0 -2 -191 -3 -425 0 -234 -4 -431 -8 -437 -4 -7 -65
-11 -173 -11 -91 0 -180 -4 -197 -7 -165 -33 -289 -107 -380 -227 -51 -66 -75
-118 -98 -205 -17 -68 -19 -112 -19 -399 0 -355 4 -334 -63 -334 -98 0 -238
-65 -333 -154 -76 -70 -123 -141 -155 -231 -28 -80 -33 -124 -33 -315 l-1
-165 -635 -5 c-349 -3 -646 -9 -659 -13 -123 -35 -207 -83 -285 -161 -85 -86
-146 -204 -163 -314 -4 -26 -7 -582 -7 -1237 l-1 -1190 438 -1 437 0 0 291 0
291 292 0 292 -1 1 -290 0 -290 583 -1 582 0 0 291 0 291 290 0 c160 0 290 -2
291 -5 0 -4 1 -134 2 -291 l2 -285 290 0 290 0 2 280 c0 154 2 285 2 291 1 7
94 10 291 10 l290 0 0 -292 0 -291 438 1 437 1 0 1635 c0 1351 -3 1645 -14
1695 -57 249 -275 439 -526 459 l-40 3 -2 298 c-1 163 -4 322 -7 353 -16 165
-124 334 -271 425 -119 72 -192 88 -421 88 -169 0 -172 1 -176 22 -1 12 -3
209 -2 438 l0 415 -288 0 c-158 0 -289 0 -290 -1z m869 -1749 l-2 -291 -580 0
-580 0 -3 291 -2 291 584 0 584 0 -1 -291z m-872 -1449 c0 -154 -3 -284 -7
-290 -5 -8 -95 -11 -292 -11 l-286 -1 0 293 0 292 292 -2 292 -3 1 -278z
m1165 -7 c0 -159 -3 -290 -7 -291 -29 -4 -573 -3 -574 1 -3 15 -4 566 -1 573
2 4 133 7 293 7 l289 0 0 -290z m-2922 -887 c5 -9 8 -529 3 -565 -1 -5 -131
-8 -291 -8 l-290 0 0 289 c0 263 2 290 17 293 46 9 555 0 561 -9z m1748 5 c7
-5 11 -487 5 -565 -1 -10 -66 -13 -291 -13 l-290 0 0 288 c0 159 2 291 4 293
7 6 561 3 572 -3z m1172 -286 l2 -292 -289 0 c-222 0 -290 3 -293 13 -6 19 -2
553 4 563 4 5 128 9 290 8 l283 -1 3 -291z"/>
</g>
</svg>
